<svg width="10" height="17" viewBox="0 0 10 17" fill="none" xmlns="http://www.w3.org/2000/svg">
<path d="M0.80125 1.22625C0.673783 1.35346 0.572655 1.50455 0.503655 1.67089C0.434656 1.83723 0.399139 2.01554 0.399139 2.19562C0.399139 2.37571 0.434656 2.55402 0.503655 2.72036C0.572655 2.8867 0.673783 3.03779 0.80125 3.165L6.13625 8.5L0.80125 13.835C0.544156 14.0921 0.399722 14.4408 0.399722 14.8044C0.399722 15.168 0.544156 15.5167 0.80125 15.7738C1.05834 16.0308 1.40704 16.1753 1.77063 16.1753C2.13421 16.1753 2.48291 16.0308 2.74 15.7738L9.05125 9.4625C9.17872 9.33529 9.27985 9.1842 9.34884 9.01786C9.41784 8.85152 9.45336 8.67321 9.45336 8.49312C9.45336 8.31304 9.41784 8.13473 9.34884 7.96839C9.27985 7.80205 9.17872 7.65096 9.05125 7.52375L2.74 1.2125C2.2175 0.69 1.3375 0.69 0.80125 1.22625Z" fill="black"/>
</svg>
