<svg width="41" height="41" viewBox="0 0 41 41" fill="none" xmlns="http://www.w3.org/2000/svg">
<path d="M33.1562 17.6874H21.9062C21.1603 17.6874 20.445 17.9837 19.9175 18.5112C19.3901 19.0386 19.0938 19.754 19.0938 20.4999V28.9374H3.625V12.9062L20.5 3.82179L38.1203 13.2999L39.4422 10.8249L21.1609 0.981162C20.9575 0.872824 20.7305 0.816162 20.5 0.816162C20.2695 0.816162 20.0425 0.872824 19.8391 0.981162L1.55781 10.8249C1.33326 10.9445 1.14536 11.1227 1.01411 11.3406C0.882855 11.5586 0.813179 11.808 0.8125 12.0624V40.1874H3.625V31.7499H37.375V40.1874H40.1875V24.7187C40.1875 22.8539 39.4467 21.0654 38.1281 19.7468C36.8095 18.4282 35.0211 17.6874 33.1562 17.6874ZM21.9062 28.9374V20.4999H33.1562C34.2751 20.4999 35.3482 20.9444 36.1394 21.7356C36.9305 22.5267 37.375 23.5998 37.375 24.7187V28.9374H21.9062Z" fill="#00B8E0"/>
</svg>
