<svg width="14" height="18" viewBox="0 0 14 18" fill="none" xmlns="http://www.w3.org/2000/svg">
<path d="M12.625 7.125C12.625 5.63316 12.0324 4.20242 10.9775 3.14752C9.92258 2.09263 8.49184 1.5 7 1.5C5.50816 1.5 4.07742 2.09263 3.02252 3.14752C1.96763 4.20242 1.375 5.63316 1.375 7.125C1.375 9.4325 3.22125 12.44 7 16.0425C10.7788 12.44 12.625 9.4325 12.625 7.125ZM7 17.75C2.41625 13.5837 0.125 10.0413 0.125 7.125C0.125 5.30164 0.849328 3.55295 2.13864 2.26364C3.42795 0.974328 5.17664 0.25 7 0.25C8.82336 0.25 10.572 0.974328 11.8614 2.26364C13.1507 3.55295 13.875 5.30164 13.875 7.125C13.875 10.0413 11.5837 13.5837 7 17.75Z" fill="black"/>
</svg>
