<svg width="46" height="28" viewBox="0 0 46 28" fill="none" xmlns="http://www.w3.org/2000/svg">
<path d="M43.6731 10.9036C44.1017 10.9036 44.5128 10.76 44.8159 10.5044C45.119 10.2488 45.2893 9.90215 45.2893 9.54067V2.72591C45.2893 2.00295 44.9487 1.30961 44.3425 0.7984C43.7363 0.287193 42.9141 0 42.0568 0H3.26714C2.40984 0 1.58764 0.287193 0.981437 0.7984C0.375231 1.30961 0.034668 2.00295 0.034668 2.72591V9.54067C0.034668 9.90215 0.204949 10.2488 0.508053 10.5044C0.811156 10.76 1.22225 10.9036 1.6509 10.9036C2.50821 10.9036 3.3304 11.1908 3.93661 11.702C4.54282 12.2132 4.88338 12.9066 4.88338 13.6295C4.88338 14.3525 4.54282 15.0458 3.93661 15.557C3.3304 16.0682 2.50821 16.3554 1.6509 16.3554C1.22225 16.3554 0.811156 16.499 0.508053 16.7546C0.204949 17.0102 0.034668 17.3569 0.034668 17.7184V24.5332C0.034668 25.2561 0.375231 25.9495 0.981437 26.4607C1.58764 26.9719 2.40984 27.2591 3.26714 27.2591H42.0568C42.9141 27.2591 43.7363 26.9719 44.3425 26.4607C44.9487 25.9495 45.2893 25.2561 45.2893 24.5332V17.7184C45.2893 17.3569 45.119 17.0102 44.8159 16.7546C44.5128 16.499 44.1017 16.3554 43.6731 16.3554C42.8158 16.3554 41.9936 16.0682 41.3874 15.557C40.7812 15.0458 40.4406 14.3525 40.4406 13.6295C40.4406 12.9066 40.7812 12.2132 41.3874 11.702C41.9936 11.1908 42.8158 10.9036 43.6731 10.9036ZM42.0568 18.9042V24.5332H30.7432V20.4443H27.5107V24.5332H3.26714V18.9042C4.65063 18.5992 5.8752 17.9161 6.7492 16.9617C7.62319 16.0073 8.09729 14.8354 8.09729 13.6295C8.09729 12.4237 7.62319 11.2518 6.7492 10.2974C5.8752 9.34297 4.65063 8.65984 3.26714 8.3549V2.72591H27.5107V6.81477H30.7432V2.72591H42.0568V8.3549C40.6733 8.65984 39.4488 9.34297 38.5748 10.2974C37.7008 11.2518 37.2267 12.4237 37.2267 13.6295C37.2267 14.8354 37.7008 16.0073 38.5748 16.9617C39.4488 17.9161 40.6733 18.5992 42.0568 18.9042Z" fill="#32DF8F"/>
</svg>
