<svg width="32" height="28" viewBox="0 0 32 28" fill="none" xmlns="http://www.w3.org/2000/svg">
<path d="M31.9038 12.9572V11.9166C31.9026 11.5031 31.7377 11.1068 31.4453 10.8144C31.1529 10.522 30.7566 10.3571 30.343 10.3559H28.2828L27.2059 6.57885L26.8833 5.29383C26.7987 4.95641 26.6038 4.65695 26.3295 4.44299C26.0552 4.22903 25.7173 4.11283 25.3694 4.11285H20.9785V2.03184C20.9776 1.75613 20.8678 1.49195 20.6728 1.297C20.4778 1.10205 20.2137 0.992156 19.938 0.991333H12.6544C12.3787 0.992156 12.1145 1.10205 11.9196 1.297C11.7246 1.49195 11.6147 1.75613 11.6139 2.03184V4.11285H7.22298C6.87511 4.11283 6.53721 4.22903 6.26292 4.44299C5.98863 4.65695 5.79369 4.95641 5.70904 5.29383L5.39169 6.57365L4.30956 10.3559H2.24936C1.8358 10.3571 1.43953 10.522 1.1471 10.8144C0.854667 11.1068 0.689834 11.5031 0.688599 11.9166V12.9572C0.689441 13.2207 0.757189 13.4797 0.885492 13.71C1.0138 13.9402 1.19845 14.134 1.42216 14.2734C0.951847 14.7566 0.688663 15.4043 0.688599 16.0787V22.3217C0.689316 22.54 0.736017 22.7556 0.825657 22.9546C0.915297 23.1536 1.04587 23.3315 1.20885 23.4767V25.4432C1.21009 25.8568 1.37492 26.2531 1.66735 26.5455C1.95978 26.8379 2.35605 27.0028 2.76961 27.004H6.93164C7.3452 27.0028 7.74146 26.8379 8.0339 26.5455C8.32633 26.2531 8.49116 25.8568 8.4924 25.4432V23.8825H24.1V25.4432C24.1012 25.8568 24.2661 26.2531 24.5585 26.5455C24.8509 26.8379 25.2472 27.0028 25.6607 27.004H29.8228C30.2363 27.0028 30.6326 26.8379 30.925 26.5455C31.2175 26.2531 31.3823 25.8568 31.3835 25.4432V23.4767C31.5465 23.3315 31.6771 23.1536 31.7667 22.9546C31.8564 22.7556 31.9031 22.54 31.9038 22.3217V16.0787C31.9037 15.4043 31.6405 14.7566 31.1702 14.2734C31.3939 14.134 31.5786 13.9402 31.7069 13.71C31.8352 13.4797 31.9029 13.2207 31.9038 12.9572ZM12.6544 2.03184H19.938V4.11285H12.6544V2.03184ZM6.71833 5.54875C6.74622 5.43596 6.81106 5.33575 6.90252 5.26409C6.99398 5.19243 7.10679 5.15345 7.22298 5.15336H25.3694C25.4856 5.15345 25.5984 5.19243 25.6899 5.26409C25.7813 5.33575 25.8462 5.43596 25.8741 5.54875L26.0353 6.19386H6.55705L6.71833 5.54875ZM6.28132 7.23437H26.3111L28.0903 13.4774H13.1279C13.0056 12.7504 12.6296 12.0902 12.0667 11.614C11.5038 11.1379 10.7904 10.8766 10.0532 10.8766C9.3159 10.8766 8.60249 11.1379 8.03959 11.614C7.4767 12.0902 7.10074 12.7504 6.97846 13.4774H4.50205L6.28132 7.23437ZM12.0613 13.4774H8.04498C8.15857 13.031 8.41767 12.6352 8.78134 12.3524C9.14501 12.0697 9.59252 11.9162 10.0532 11.9162C10.5138 11.9162 10.9613 12.0697 11.325 12.3524C11.6886 12.6352 11.9477 13.031 12.0613 13.4774ZM1.7291 11.9166C1.7291 11.7787 1.78392 11.6463 1.88148 11.5488C1.97905 11.4512 2.11138 11.3964 2.24936 11.3964H4.01302L3.41993 13.4774H2.24936C2.11138 13.4774 1.97905 13.4226 1.88148 13.325C1.78392 13.2275 1.7291 13.0951 1.7291 12.9572V11.9166ZM7.45189 25.4432C7.45189 25.5812 7.39708 25.7135 7.29951 25.8111C7.20194 25.9087 7.06962 25.9635 6.93164 25.9635H2.76961C2.63163 25.9635 2.4993 25.9087 2.40174 25.8111C2.30417 25.7135 2.24936 25.5812 2.24936 25.4432V23.8825H7.45189V25.4432ZM30.343 25.4432C30.343 25.5812 30.2882 25.7135 30.1906 25.8111C30.0931 25.9087 29.9608 25.9635 29.8228 25.9635H25.6607C25.5228 25.9635 25.3904 25.9087 25.2929 25.8111C25.1953 25.7135 25.1405 25.5812 25.1405 25.4432V23.8825H30.343V25.4432ZM30.8633 22.3217C30.8633 22.4597 30.8085 22.592 30.7109 22.6896C30.6133 22.7872 30.481 22.842 30.343 22.842H2.24936C2.11138 22.842 1.97905 22.7872 1.88148 22.6896C1.78392 22.592 1.7291 22.4597 1.7291 22.3217V21.8015H30.8633V22.3217ZM30.8633 20.761H1.7291V16.0787C1.73034 15.6651 1.89517 15.2688 2.18761 14.9764C2.48004 14.684 2.87631 14.5192 3.28986 14.5179H29.3025C29.7161 14.5192 30.1123 14.684 30.4048 14.9764C30.6972 15.2688 30.862 15.6651 30.8633 16.0787V20.761ZM30.8633 12.9572C30.8633 13.0951 30.8085 13.2275 30.7109 13.325C30.6133 13.4226 30.481 13.4774 30.343 13.4774H29.1725L28.5794 11.3964H30.343C30.481 11.3964 30.6133 11.4512 30.7109 11.5488C30.8085 11.6463 30.8633 11.7787 30.8633 11.9166V12.9572Z" fill="white"/>
</svg>
