<svg width="8" height="8" viewBox="0 0 8 8" fill="none" xmlns="http://www.w3.org/2000/svg">
<path d="M4.19505 7.40377C3.52761 7.40377 2.87516 7.20585 2.32021 6.83504C1.76526 6.46424 1.33273 5.93719 1.07731 5.32056C0.821896 4.70393 0.755068 4.02541 0.885278 3.3708C1.01549 2.71619 1.33689 2.11489 1.80884 1.64294C2.28078 1.171 2.88208 0.849595 3.53669 0.719385C4.1913 0.589175 4.86983 0.656003 5.48645 0.911419C6.10308 1.16684 6.63013 1.59937 7.00093 2.15432C7.37174 2.70927 7.56966 3.36172 7.56966 4.02915C7.56871 4.92387 7.21286 5.78166 6.58021 6.41432C5.94755 7.04697 5.08976 7.40281 4.19505 7.40377ZM4.19505 1.55444C3.70559 1.55444 3.22713 1.69958 2.82017 1.9715C2.4132 2.24343 2.09601 2.62993 1.90871 3.08212C1.7214 3.53432 1.6724 4.0319 1.76788 4.51195C1.86337 4.992 2.09906 5.43295 2.44516 5.77904C2.79125 6.12514 3.23221 6.36083 3.71225 6.45632C4.1923 6.55181 4.68988 6.5028 5.14208 6.31549C5.59427 6.12819 5.98077 5.811 6.2527 5.40403C6.52462 4.99707 6.66976 4.51861 6.66976 4.02915C6.66893 3.37308 6.40793 2.74411 5.94402 2.28019C5.4801 1.81627 4.85113 1.55527 4.19505 1.55444Z" fill="white"/>
</svg>
